<svg xmlns="http://www.w3.org/2000/svg" xmlns:xlink="http://www.w3.org/1999/xlink" width="100" height="86" version="1.1" viewBox="0 0 100 86"><title>terminal copy</title><defs><filter id="filter-1"><feColorMatrix in="SourceGraphic" type="matrix" values="0 0 0 0 1.000000 0 0 0 0 1.000000 0 0 0 0 1.000000 0 0 0 1.000000 0"/></filter></defs><g id="Page-1" fill="none" fill-rule="evenodd" stroke="none" stroke-width="1"><g id="All-icons-Copy" transform="translate(-325.000000, -450.000000)"><g id="terminal-copy" filter="url(#filter-1)" transform="translate(325.000000, 450.000000)"><g id="terminal" fill="#000" fill-rule="nonzero" transform="translate(0.000000, 0.000000)"><path id="Shape" d="M92.4032258,0.65483871 L7.10967742,0.65483871 C3.18387097,0.65483871 0,3.83225806 0,7.75806452 L0,78.8483871 C0,82.7709677 3.18387097,85.9580645 7.10967742,85.9580645 L92.4032258,85.9580645 C96.3225806,85.9580645 99.5193548,82.7709677 99.5193548,78.8483871 L99.5193548,7.75806452 C99.5193548,3.83225806 96.3193548,0.65483871 92.4032258,0.65483871 Z M23.1032258,5.99032258 C25.0612903,5.99032258 26.6580645,7.57419355 26.6580645,9.5483871 C26.6580645,11.5064516 25.0645161,13.0903226 23.1032258,13.0903226 C21.1322581,13.0903226 19.5419355,11.5096774 19.5419355,9.5483871 C19.5451613,7.57741935 21.1322581,5.99032258 23.1032258,5.99032258 Z M12.4354839,5.99032258 C14.3967742,5.99032258 15.9903226,7.57419355 15.9903226,9.5483871 C15.9903226,11.5064516 14.4,13.0903226 12.4354839,13.0903226 C10.4709677,13.0903226 8.87741935,11.5096774 8.87741935,9.5483871 C8.88064516,7.57741935 10.4709677,5.99032258 12.4354839,5.99032258 Z M92.4032258,78.8516129 L7.10967742,78.8516129 L7.10967742,18.5 L92.4032258,18.5 L92.4032258,78.8516129 Z"/><polygon id="Path" points="39.842 33.11 17.016 22.671 17.016 27.706 34.665 35.255 34.665 35.348 17.016 42.884 17.016 47.916 39.842 37.477"/><rect id="Rectangle" width="12.435" height="4.794" x="50.587" y="32.9"/></g></g></g></g></svg>